# xmcd
#
# Track frame offsets:
#	200
#	12390
#	27182
#	40420
#	52270
#	62592
#	83407
#	92997
#	108750
#	120972
#	137187
#	149637
#
# Disc length: 2156 seconds
#
# Revision: 1
# Processed by: cddbd v1.5.1PL0 Copyright (c) Steve Scherf et al.
# Submitted via: audiograbber 1.83.01
#
DISCID=a1086a0c
DTITLE=Doyle Lawson and Quicksilver - Hymn Time In The Country
DYEAR=1990
DGENRE=Gospel
TTITLE0=Sail On Toward Home
TTITLE1=I Know Who Holds Tomorrow
TTITLE2=Paradise Is Waiting
TTITLE3=John The Revelator
TTITLE4=O'ershadowed By His Love
TTITLE5=Lord, I Want To Go To Heaven
TTITLE6=Hallelujah
TTITLE7=His Eye Is On The Sparrow
TTITLE8=I'am Winging My Way Back Home
TTITLE9=He Will Pilot Me
TTITLE10=Lord To Know I Have You
TTITLE11=I Can See The Lights Of Home
EXTD=
EXTT0=
EXTT1=
EXTT2=
EXTT3=
EXTT4=
EXTT5=
EXTT6=
EXTT7=
EXTT8=
EXTT9=
EXTT10=
EXTT11=
PLAYORDER=
